<svg xmlns="http://www.w3.org/2000/svg" viewBox="0 0 32 32"><title>home android app aplication phone</title><g id="home_android_app_aplication_phone" data-name="home android app aplication phone"><path d="M30.56,8.47a8,8,0,0,0-7-7,64.29,64.29,0,0,0-15.06,0,8,8,0,0,0-7,7,64.29,64.29,0,0,0,0,15.06,8,8,0,0,0,7,7,64.29,64.29,0,0,0,15.06,0,8,8,0,0,0,7-7A64.29,64.29,0,0,0,30.56,8.47ZM7.36,15,9.24,9H22.76l1.88,6ZM23,17V28.6c-1,.11-2,.2-3,.26V22a2,2,0,0,0-2-2H14a2,2,0,0,0-2,2v6.86c-1-.06-2-.15-3-.26V17ZM14,28.94V22h4v6.94C16.67,29,15.33,29,14,28.94ZM28.58,23.3A6,6,0,0,1,25,28.1V17h1A1,1,0,0,0,27,15.7l-2.5-8A1,1,0,0,0,23.5,7H8.5a1,1,0,0,0-1,.7l-2.5,8A1,1,0,0,0,6,17H7V28.1a6,6,0,0,1-3.58-4.8,63.65,63.65,0,0,1,0-14.6A6,6,0,0,1,8.7,3.42a63.65,63.65,0,0,1,14.6,0A6,6,0,0,1,28.58,8.7,63.65,63.65,0,0,1,28.58,23.3Z"/></g></svg>