<?xml version="1.0" encoding="utf-8"?>
<!-- Generator: Adobe Illustrator 23.0.3, SVG Export Plug-In . SVG Version: 6.00 Build 0)  -->
<svg version="1.1" id="Layer_1" xmlns="http://www.w3.org/2000/svg" xmlns:xlink="http://www.w3.org/1999/xlink" x="0px" y="0px"
	 viewBox="0 0 32 32" style="enable-background:new 0 0 32 32;" xml:space="preserve">
<g>
	<g>
		<path d="M28,31H4c-0.5527344,0-1-0.4477539-1-1V2c0-0.5522461,0.4472656-1,1-1h24c0.5527344,0,1,0.4477539,1,1v28
			C29,30.5522461,28.5527344,31,28,31z M5,29h22V3H5V29z"/>
	</g>
	<g>
		<g>
			<circle cx="16" cy="10.2105265" r="4.2105265"/>
		</g>
		<g>
			<path d="M21.6808681,26H10.3191319c-1.1257935,0-2.0384302-0.9126358-2.0384302-2.0384293v-0.4932613
				c0-4.0500832,3.2832422-7.3333263,7.3333263-7.3333263h0.771945c4.0500832,0,7.3333244,3.2832432,7.3333244,7.3333263v0.4932613
				C23.7192974,25.0873642,22.8066616,26,21.6808681,26z"/>
		</g>
	</g>
</g>
</svg>
